<svg width="183" height="63" viewBox="0 0 183 63" fill="none" xmlns="http://www.w3.org/2000/svg">
<path d="M80.4042 13.2007L72.9492 2.91766C75.0952 1.30059 77.7173 0.441812 80.4042 0.476085V13.2007Z" fill="#C4161C"/>
<path d="M80.4043 13.2011L68.3633 9.27013C69.1498 6.70501 70.7621 4.4718 72.9494 2.91797L80.4043 13.2011Z" fill="#A6CE39"/>
<path d="M80.4054 13.2005L68.3643 17.1273C67.4983 14.5796 67.4983 11.8172 68.3643 9.26953L80.4054 13.2005Z" fill="#00AEEF"/>
<path d="M80.4043 13.2007L72.9494 23.4797C70.7621 21.9259 69.1498 19.6927 68.3633 17.1275L80.4043 13.2007Z" fill="#92C5EB"/>
<path d="M80.4042 13.2007V25.9091C77.7173 25.9433 75.0952 25.0846 72.9492 23.4675L80.4042 13.2007Z" fill="#D7DF23"/>
<path d="M80.4062 13.2007L87.8612 23.4797C85.7152 25.0968 83.0931 25.9556 80.4062 25.9213V13.2007Z" fill="#00ABBD"/>
<path d="M80.4062 13.2007L92.4676 17.1275C91.6758 19.6955 90.056 21.9291 87.8612 23.4797L80.4062 13.2007Z" fill="#8490C8"/>
<path d="M80.4062 13.2005L92.4676 9.26953C93.3303 11.8178 93.3303 14.5791 92.4676 17.1273L80.4062 13.2005Z" fill="#92278F"/>
<path d="M80.4062 13.2011L87.8612 2.91797C90.056 4.46855 91.6758 6.70214 92.4676 9.27013L80.4062 13.2011Z" fill="#F7941D"/>
<path d="M80.4062 13.2007V0.488292C83.0931 0.454019 85.7152 1.3128 87.8612 2.92986L80.4062 13.2007Z" fill="#FFCB05"/>
<path d="M80.3709 0.537146C82.8658 0.537146 85.3048 1.27699 87.3793 2.66312C89.4538 4.04925 91.0706 6.01941 92.0254 8.32447C92.9802 10.6295 93.23 13.1659 92.7433 15.613C92.2565 18.06 91.0551 20.3077 89.2909 22.0719C87.5267 23.8362 85.2789 25.0376 82.8319 25.5243C80.3849 26.0111 77.8484 25.7613 75.5434 24.8065C73.2383 23.8517 71.2682 22.2348 69.882 20.1603C68.4959 18.0858 67.7561 15.6469 67.7561 13.1519C67.7561 9.80629 69.0851 6.59767 71.4509 4.23193C73.8166 1.8662 77.0252 0.537146 80.3709 0.537146ZM80.3709 0C77.7688 0 75.2253 0.771586 73.0618 2.21719C70.8983 3.66279 69.212 5.71747 68.2163 8.12142C67.2205 10.5254 66.96 13.1706 67.4676 15.7226C67.9753 18.2746 69.2283 20.6188 71.0682 22.4587C72.9081 24.2986 75.2522 25.5516 77.8042 26.0592C80.3563 26.5669 83.0015 26.3063 85.4054 25.3106C87.8094 24.3148 89.8641 22.6286 91.3097 20.4651C92.7553 18.3016 93.5269 15.758 93.5269 13.156C93.5269 9.66682 92.1408 6.32054 89.6736 3.85331C87.2063 1.38608 83.86 0 80.3709 0" fill="white"/>
<path d="M80.6685 25.9502H80.0703V55.7292H80.6685V25.9502Z" fill="white"/>
<path d="M80.6685 25.9502H80.0703V55.7333L80.6685 55.7292V25.9502Z" fill="white"/>
<path d="M90.6104 53.4702C89.9837 53.8772 87.9572 55.5049 86.1545 56.982C85.8819 56.8477 85.6092 56.7338 85.3203 56.6239C86.9969 54.9026 89.0681 52.8151 89.8332 52.107C90.8179 51.2158 91.408 50.8496 92.1527 50.8496C92.8973 50.8496 93.3734 51.3257 93.8943 52.0338C93.8943 52.0338 94.1385 52.343 94.525 52.8476C94.1181 53.0918 93.6868 53.34 93.2717 53.5964C93.1368 53.4162 92.965 53.2667 92.7678 53.1579C92.5707 53.0492 92.3527 52.9836 92.1282 52.9656C91.583 52.9807 91.0546 53.1578 90.6104 53.4743" fill="white"/>
<path d="M99.8359 52.3232C100.019 52.5552 100.194 52.7912 100.361 53.0232L99.1848 53.4911C99.0139 53.2795 98.8429 53.0842 98.668 52.8726L99.8359 52.3232Z" fill="white"/>
<path d="M95.6674 54.2806C95.7854 54.4312 95.9197 54.5939 96.0418 54.7567L94.7884 55.2613C94.6541 55.1229 94.5321 54.9887 94.4141 54.8544L95.6674 54.2725" fill="white"/>
<path d="M102.306 55.5908C104.898 59.0782 107.165 62.0691 107.165 62.0691H106.261C106.261 62.0691 103.848 59.1596 101.199 55.9245L102.306 55.5908Z" fill="white"/>
<path d="M97.78 56.9697C99.7577 59.509 101.788 62.0808 101.788 62.0808H100.95C100.95 62.0808 98.6834 59.5904 96.6406 57.3156C97.0476 57.1976 97.4097 57.0755 97.78 56.9697Z" fill="white"/>
<path d="M92.6848 46.5772C93.3563 46.5772 93.6859 46.8905 94.1416 47.391C94.2596 47.5212 95.574 49.1083 97.3035 51.1877C97.7104 50.9476 98.1173 50.7156 98.4795 50.4918C96.2983 47.6067 94.5241 45.2587 94.341 45.039C93.7998 44.392 93.3685 43.981 92.522 43.981C91.5373 43.981 90.9757 44.4326 90.3368 45.2913C89.3073 46.7033 85.9705 52.8601 84.1719 56.2336C84.3951 56.2944 84.6151 56.3664 84.8311 56.4493C86.7844 53.5031 90.0601 48.6281 91.1263 47.4968C91.6716 46.9312 92.1395 46.5568 92.6848 46.5568" fill="white"/>
<path d="M68.616 52.9617C68.3922 52.9822 68.1751 53.0488 67.9783 53.1574C67.7815 53.266 67.6093 53.4141 67.4726 53.5925C67.0657 53.3361 66.6302 53.0879 66.207 52.8437C66.614 52.3432 66.8296 52.0299 66.8418 52.0299C67.3993 51.3218 67.8999 50.8457 68.5957 50.8457C69.2916 50.8457 69.9223 51.2119 70.9111 52.1031C71.6762 52.8112 73.7596 54.8987 75.424 56.62C75.1391 56.7299 74.8583 56.8438 74.5857 56.9781C72.7911 55.5213 70.7565 53.8814 70.1298 53.4663C69.6874 53.1493 69.1601 52.9721 68.616 52.9577" fill="white"/>
<path d="M62.0639 52.8726C61.8971 53.0801 61.718 53.2795 61.5431 53.4911L60.3711 53.0232C60.5501 52.7912 60.721 52.5552 60.896 52.3232L62.0639 52.8726Z" fill="white"/>
<path d="M66.3308 54.8622C66.2169 54.9883 66.0948 55.1226 65.9768 55.2691L64.7031 54.7564C64.8333 54.5936 64.9514 54.4308 65.0775 54.2803C65.4844 54.4675 65.8914 54.6628 66.2983 54.8622" fill="white"/>
<path d="M59.5473 55.9245L54.481 62.0691H53.5898C53.5898 62.0691 55.8402 59.0782 58.4526 55.5908L59.5473 55.9245Z" fill="white"/>
<path d="M64.1079 57.3039L59.8189 62.069H58.9766C58.9766 62.069 61.0112 59.4972 62.997 56.958C63.3633 57.0638 63.7336 57.1859 64.1283 57.3039" fill="white"/>
<path d="M69.6222 47.5168C70.6803 48.6278 73.9601 53.5028 75.9052 56.4693C76.129 56.3879 76.3569 56.3106 76.5807 56.2536C74.7658 52.8802 71.429 46.7233 70.3995 45.3113C69.7647 44.4527 69.2072 44.001 68.2305 44.001C67.3841 44.001 66.9324 44.4079 66.3912 45.059C66.2081 45.2787 64.442 47.6267 62.2812 50.5118L63.4491 51.2077C65.1664 49.1283 66.4685 47.5453 66.5947 47.411C67.0545 46.9105 67.4085 46.5972 68.0637 46.5972C68.609 46.5972 69.077 46.9716 69.6222 47.5372" fill="white"/>
<path d="M80.3685 56.3926C82.9132 56.4101 85.3992 57.1588 87.5304 58.5493V60.0264C85.409 61.4332 82.92 62.1834 80.3746 62.1834C77.8292 62.1834 75.3402 61.4332 73.2188 60.0264V58.5493C75.3452 57.1583 77.8275 56.4095 80.3685 56.3926Z" fill="white"/>
<path d="M107.427 47.7854C107.197 47.4808 106.903 47.2306 106.566 47.0526C106.228 46.8747 105.855 46.7734 105.474 46.7559C104.878 46.7845 104.301 46.9713 103.802 47.2971C102.145 48.29 92.489 54.0521 86.9141 57.3726C87.2396 57.5435 87.557 57.7307 87.8744 57.9301C93.4412 55.3217 102.202 51.2077 104.115 50.3246C104.687 50.022 105.317 49.8432 105.962 49.7997C106.931 49.7997 107.558 50.406 108.237 51.0449C110.272 52.9778 119.489 62.0686 119.489 62.0686H120.543C120.543 62.0686 109.621 50.1578 107.427 47.7854Z" fill="white"/>
<path d="M104.043 52.5506C103.433 52.6026 102.84 52.7755 102.298 53.0593C100.67 53.7144 93.4753 56.6077 88.2422 58.7075V59.8184C93.9392 58.1011 102.078 55.6311 102.578 55.4968C103.06 55.3202 103.564 55.2133 104.076 55.1794C104.421 55.1726 104.764 55.235 105.085 55.3629C105.406 55.4908 105.698 55.6816 105.944 55.9241C107.087 56.9699 111.173 60.8072 112.454 62.0524H113.443C113.443 62.0524 107.388 55.2526 105.667 53.3441C105.471 53.0985 105.224 52.8984 104.943 52.7579C104.662 52.6173 104.353 52.5397 104.039 52.5303" fill="white"/>
<path d="M40.1842 62.0686H41.2382C41.2382 62.0686 50.4592 52.9778 52.4938 51.049C53.1612 50.406 53.7919 49.7997 54.7523 49.7997C55.3943 49.8427 56.0199 50.0216 56.5875 50.3246C58.5205 51.2036 67.2857 55.3217 72.8403 57.9301C73.1577 57.7307 73.4669 57.5232 73.7925 57.3726C68.2298 54.0521 58.5774 48.2859 56.9009 47.2971C56.4038 46.9725 55.8295 46.7857 55.2365 46.7559C54.8572 46.7746 54.4865 46.8761 54.1504 47.0532C53.8144 47.2304 53.5212 47.4789 53.2914 47.7813C51.0899 50.1578 40.168 62.0686 40.168 62.0686" fill="white"/>
<path d="M55.0697 53.3606C53.3565 55.2691 47.2852 62.0688 47.2852 62.0688H48.2903C49.5762 60.8481 53.6699 56.9863 54.8011 55.9405C55.0459 55.6988 55.3365 55.5085 55.6559 55.3806C55.9752 55.2527 56.3169 55.1899 56.6608 55.1958C57.1791 55.2301 57.69 55.3369 58.1786 55.5132C58.6629 55.6475 66.8096 58.1176 72.5025 59.8389V58.7076L58.4553 53.0554C57.9053 52.7697 57.3032 52.5981 56.6852 52.5508C56.3708 52.5588 56.062 52.6358 55.7807 52.7765C55.4995 52.9171 55.2525 53.1179 55.0575 53.3646" fill="white"/>
<path d="M19.5336 10.8896C19.2243 10.1734 18.5488 9.76651 17.5193 9.76651C16.4898 9.76651 15.8916 10.1734 15.8916 10.7676C15.8916 11.4919 16.7054 11.6018 18.1419 11.9192C18.9389 12.0316 19.7077 12.2925 20.4085 12.6883C20.6642 12.8449 20.8741 13.0662 21.017 13.3298C21.1599 13.5934 21.2307 13.8901 21.2224 14.1898C21.2224 15.4594 19.8225 16.4198 17.5315 16.4198C15.6271 16.4198 14.1988 15.6059 13.7227 14.2224L15.3056 13.9782C15.6271 14.8531 16.4776 15.3414 17.7187 15.3414C18.7564 15.3414 19.4888 14.8613 19.4888 14.3078C19.4888 13.494 18.7442 13.3719 17.3036 13.0626C16.4002 12.8673 15.5579 12.7412 14.8417 12.1959C14.6391 12.0567 14.4727 11.8711 14.3566 11.6544C14.2405 11.4378 14.178 11.1964 14.1743 10.9507C14.1743 9.66071 15.4806 8.7207 17.5722 8.7207C19.2772 8.7207 20.4899 9.37993 21.0067 10.5763L19.5336 10.8896Z" fill="white"/>
<path d="M30.2727 8.8833V9.94132H25.6785V11.9149H29.3409V12.916H25.6785V15.207H30.3663V16.2853H24.0508V8.8833H30.2727Z" fill="white"/>
<path d="M34.6459 8.8833V15.1866H38.6664V16.2853H32.9531V8.8833H34.6459Z" fill="white"/>
<path d="M46.9954 8.8833V9.94132H42.3971V11.9149H46.0594V12.916H42.3971V15.207H47.089V16.2853H40.7734V8.8833H46.9954Z" fill="white"/>
<path d="M55.0557 11.4551C55.0083 10.9828 54.7813 10.5467 54.4216 10.237C54.0619 9.92727 53.5969 9.76752 53.1228 9.79076C51.78 9.79076 50.9376 10.7715 50.9376 12.5864C50.9376 14.4013 51.7515 15.3453 53.1228 15.3453C54.1646 15.3453 54.8279 14.7919 55.1086 13.7176L56.6428 13.8885C56.2684 15.5162 54.9866 16.4359 53.1106 16.4359C50.726 16.4359 49.1797 14.9832 49.1797 12.5864C49.1797 10.1896 50.8074 8.74902 53.1228 8.74902C55.0273 8.74902 56.2928 9.65241 56.6265 11.3167L55.0557 11.4551Z" fill="white"/>
<path d="M64.6228 8.8833V9.94945H62.2667V16.2853H60.5861V9.94945H58.2422V8.8833H64.6228Z" fill="white"/>
<path d="M101.812 10.8895C101.49 10.1529 100.811 9.77042 99.7773 9.77042C98.7437 9.77042 98.1496 10.1773 98.1496 10.7715C98.1496 11.4958 98.9634 11.6057 100.4 11.9231C101.196 12.0355 101.963 12.2964 102.662 12.6922C102.919 12.8482 103.129 13.0693 103.272 13.3331C103.415 13.5969 103.485 13.8938 103.476 14.1937C103.476 15.4634 102.08 16.4237 99.7895 16.4237C97.881 16.4237 96.4567 15.6098 95.9766 14.2263L97.5636 13.9821C97.881 14.857 98.7355 15.3453 99.9726 15.3453C101.014 15.3453 101.747 14.8652 101.747 14.3117C101.747 13.4979 101.002 13.3758 99.5616 13.0665C98.6542 12.8712 97.8159 12.7451 97.0956 12.1998C96.8965 12.0584 96.7336 11.8718 96.6205 11.6554C96.5073 11.439 96.447 11.1988 96.4445 10.9546C96.4445 9.66461 97.7467 8.72461 99.8383 8.72461C101.543 8.72461 102.76 9.38383 103.277 10.5802L101.812 10.8895Z" fill="white"/>
<path d="M112.538 8.8833V9.94132H107.94V11.9149H111.602V12.916H107.94V15.207H112.632V16.2853H106.316V8.8833H112.538Z" fill="white"/>
<path d="M120.599 11.4551C120.55 10.9832 120.323 10.5477 119.964 10.2382C119.604 9.92862 119.14 9.76852 118.666 9.79076C117.319 9.79076 116.481 10.7715 116.481 12.5864C116.481 14.4013 117.294 15.3453 118.666 15.3453C119.708 15.3453 120.371 14.7919 120.652 13.7176L122.182 13.8885C121.811 15.5162 120.53 16.4359 118.654 16.4359C116.269 16.4359 114.723 14.9832 114.723 12.5864C114.723 10.1896 116.35 8.74902 118.666 8.74902C120.574 8.74902 121.84 9.65241 122.169 11.3167L120.599 11.4551Z" fill="white"/>
<path d="M130.166 8.8833V9.94945H127.81V16.2853H126.129V9.94945H123.785V8.8833H130.166Z" fill="white"/>
<path d="M139.866 12.5742C139.866 14.9303 138.238 16.4237 135.882 16.4237C133.526 16.4237 131.898 14.9425 131.898 12.5742C131.898 10.2058 133.526 8.73682 135.882 8.73682C138.238 8.73682 139.866 10.218 139.866 12.5742ZM133.697 12.5742C133.697 14.3646 134.539 15.3453 135.882 15.3453C137.225 15.3453 138.067 14.3565 138.067 12.5742C138.067 10.7918 137.229 9.80297 135.882 9.80297C134.535 9.80297 133.697 10.7837 133.697 12.5742Z" fill="white"/>
<path d="M146.239 8.8833C148.514 8.8833 149.673 9.6117 149.673 10.9953C149.673 11.9231 149.1 12.5864 147.981 12.9282L149.796 16.2772H148.05L146.398 13.1642H144.278V16.2772H142.613V8.8833H146.239ZM144.278 12.1672H146.036C147.305 12.1672 147.944 11.7603 147.944 11.0278C147.944 10.2953 147.309 9.90876 146.088 9.90876H144.29L144.278 12.1672Z" fill="white"/>
<path d="M13.2618 29.4009C13.2618 31.2117 15.1377 31.9483 18.5926 32.6197C20.261 32.9412 23.7687 33.576 25.3801 33.8812C29.0425 34.5852 39.6511 36.1478 39.6511 44.1846C39.6511 51.3059 33.1647 55.5786 19.2192 55.5786C4.37448 55.5623 0 49.5154 0 44.2701V43.8224H12.7613V44.2294C12.7613 45.8205 14.1937 48.2987 20.7574 48.2987C25.8929 48.2987 27.0445 46.7971 27.0445 45.3281C27.0445 44.0178 25.8237 42.7115 21.5794 41.9017L11.6341 40.038C4.47622 38.6585 0 35.5577 0 30.0805C0 24.416 6.5719 19.7363 19.3657 19.7363C37.4863 19.7363 39.0326 27.5494 39.0326 30.1334V30.756H26.3324V30.2799C26.3324 29.1689 24.3994 26.882 19.0809 26.882C15.6871 26.882 13.2618 27.7406 13.2618 29.4009Z" fill="white"/>
<path d="M124.02 19.8584H149.208C160.11 19.8584 163.793 25.7629 163.793 31.2524C163.793 39.2567 157.331 41.4256 155.805 41.8326L164.501 55.7495H150.283L142.93 42.6912H136.858V55.7495H124.02V19.8584ZM136.858 34.5526H146.555C149.664 34.5526 150.954 33.1324 150.954 31.2972C150.954 29.4619 149.685 28.001 146.555 28.001H136.858V34.5526Z" fill="white"/>
<path d="M169.38 41.7222C169.38 42.6948 170.348 43.0895 172.131 43.4516C172.993 43.6226 174.8 43.9644 175.634 44.1271C177.518 44.5056 183 45.3479 183 49.6573C183 53.4824 179.655 55.7612 172.452 55.7612C164.79 55.7612 162.531 52.5058 162.531 49.698V49.4579H169.119V49.6858C169.119 50.5403 169.86 51.871 173.246 51.871C175.899 51.871 176.501 51.0571 176.501 50.2758C176.501 49.5719 175.879 48.8679 173.681 48.4365L168.546 47.4273C164.855 46.6908 162.539 45.0224 162.539 42.0803C162.539 39.0365 165.933 36.5298 172.538 36.5298C181.897 36.5298 182.691 40.7252 182.691 42.1128V42.4465H176.127V42.1902C176.127 41.592 175.13 40.3671 172.383 40.3671C170.629 40.3671 169.38 40.827 169.38 41.7181" fill="white"/>
<path d="M97.1328 47.3828L98.6791 49.4175L102.342 47.2241C101.552 47.3224 100.757 47.37 99.961 47.3665L97.1328 47.3828Z" fill="white"/>
<path d="M92.6865 47.3789C92.4667 47.3789 92.1737 47.5864 91.6976 48.0748C91.3477 48.4369 90.5542 49.4542 88.8125 51.9731L89.2886 51.5214C90.3426 50.5652 91.1076 50.0524 92.1371 50.0524C93.1666 50.0524 93.9195 50.7727 94.5136 51.5499L94.7048 51.7982L96.0762 50.9843C94.1189 48.6241 93.6021 48.0096 93.5329 47.9323C93.1259 47.4644 92.9794 47.383 92.6702 47.383" fill="white"/>
<path d="M92.5236 43.1836C93.6508 43.1836 94.2734 43.737 94.835 44.384V28.2004H99.9704C106.42 28.2004 110.994 31.0489 110.994 37.7877C110.994 41.9017 109.297 44.6282 106.38 46.089C107.013 46.318 107.575 46.7112 108.007 47.2284L113.891 53.6294C120.077 50.7809 123.548 45.2345 123.548 37.7877C123.548 27.3703 116.524 19.8584 103.14 19.8584H92.601C91.5544 21.7672 90.0763 23.405 88.2846 24.6414C86.493 25.8778 84.4372 26.6785 82.2812 26.9797V55.7495H83.5265C84.4868 53.9509 88.4869 46.4837 89.6874 44.8398C90.3181 43.9893 91.0953 43.212 92.5359 43.212" fill="white"/>
<path d="M107.667 51.5906C106.991 50.9558 106.58 50.5977 105.978 50.5977C105.449 50.6458 104.935 50.8009 104.468 51.0534C103.882 51.322 102.649 51.8958 101.07 52.6364L101.099 52.6771L102.002 52.3149L102.316 52.1887C102.855 51.9249 103.444 51.7767 104.045 51.7533C104.469 51.76 104.886 51.8583 105.268 52.0417C105.65 52.225 105.988 52.489 106.259 52.8154C106.735 53.3444 107.549 54.2519 108.468 55.2855C109.309 55.1336 110.123 54.9491 110.91 54.7321C109.506 53.3566 108.301 52.1847 107.715 51.6272L107.667 51.5906Z" fill="white"/>
<path d="M53.0123 46.9431V43.0813H63.9993C74.6772 43.0813 78.6773 38.3854 78.6773 31.4391C78.7004 29.8971 78.4595 28.3626 77.9651 26.9018C75.9511 26.546 74.0396 25.7531 72.3649 24.579C70.6903 23.405 69.2932 21.8782 68.2721 20.1061C66.8573 19.9001 65.429 19.8008 63.9993 19.8091H40.2266V55.749H44.9144C48.0315 52.3552 51.5758 48.4975 52.7193 47.2605C52.8047 47.171 52.9024 47.0692 53.0123 46.9634V46.9431ZM53.0123 27.9232H60.9026C63.979 27.9232 65.8427 29.0423 65.8427 31.4676C65.8427 33.7952 64.0807 34.9957 60.9026 34.9957H53.0123V27.9232Z" fill="white"/>
<path d="M53.0153 51.6797C52.2543 52.4 50.6225 53.991 48.832 55.749H51.8759L53.0153 54.4753V51.6797Z" fill="white"/>
<path d="M170.125 27.6711C170.124 27.1476 170.279 26.6356 170.569 26.2C170.859 25.7644 171.272 25.4248 171.756 25.2241C172.239 25.0234 172.772 24.9707 173.285 25.0726C173.799 25.1745 174.27 25.4265 174.64 25.7967C175.011 26.1668 175.263 26.6385 175.364 27.152C175.466 27.6655 175.414 28.1976 175.213 28.6811C175.012 29.1646 174.673 29.5776 174.237 29.868C173.801 30.1583 173.289 30.3128 172.766 30.312C172.419 30.3126 172.075 30.2446 171.755 30.1121C171.434 29.9796 171.143 29.7851 170.897 29.5397C170.652 29.2944 170.457 29.003 170.325 28.6824C170.192 28.3617 170.124 28.018 170.125 27.6711ZM174.805 27.6711C174.805 27.2687 174.685 26.8753 174.462 26.5407C174.238 26.2061 173.92 25.9453 173.549 25.7913C173.177 25.6373 172.768 25.597 172.373 25.6755C171.978 25.754 171.616 25.9478 171.331 26.2324C171.047 26.5169 170.853 26.8795 170.774 27.2741C170.696 27.6688 170.736 28.0779 170.89 28.4497C171.044 28.8215 171.305 29.1393 171.64 29.3628C171.974 29.5864 172.368 29.7057 172.77 29.7057C173.31 29.7057 173.827 29.4914 174.209 29.1098C174.59 28.7282 174.805 28.2107 174.805 27.6711ZM174.084 29.136H173.405L172.766 27.9641H172.233V29.136H171.631V26.2875H173.059C173.718 26.2875 174.166 26.4055 174.166 27.1624C174.166 27.6914 173.897 27.903 173.389 27.9397L174.084 29.136ZM173.071 27.5083C173.389 27.5083 173.564 27.4391 173.564 27.077C173.564 26.7148 173.205 26.7392 172.925 26.7392H172.233V27.5083H173.071Z" fill="white"/>
</svg>
