<?xml version="1.0" encoding="utf-8"?>
<!-- Generator: Adobe Illustrator 28.0.0, SVG Export Plug-In . SVG Version: 6.00 Build 0)  -->
<svg version="1.1" id="Layer_1" xmlns="http://www.w3.org/2000/svg" xmlns:xlink="http://www.w3.org/1999/xlink" x="0px" y="0px"
	 viewBox="0 0 183 63" style="enable-background:new 0 0 183 63;" xml:space="preserve">
<style type="text/css">
	.st0{fill:#C4161C;}
	.st1{fill:#A6CE39;}
	.st2{fill:#00AEEF;}
	.st3{fill:#92C5EB;}
	.st4{fill:#D7DF23;}
	.st5{fill:#00ABBD;}
	.st6{fill:#8490C8;}
	.st7{fill:#92278F;}
	.st8{fill:#F7941D;}
	.st9{fill:#FFCB05;}
	.st10{fill:#FFFFFF;}
</style>
<path class="st0" d="M80.4,13.2L72.9,2.9c2.1-1.6,4.8-2.5,7.5-2.4V13.2z"/>
<path class="st1" d="M80.4,13.2l-12-3.9c0.8-2.6,2.4-4.8,4.6-6.4L80.4,13.2z"/>
<path class="st2" d="M80.4,13.2l-12,3.9c-0.9-2.5-0.9-5.3,0-7.9L80.4,13.2z"/>
<path class="st3" d="M80.4,13.2l-7.5,10.3c-2.2-1.6-3.8-3.8-4.6-6.4L80.4,13.2z"/>
<path class="st4" d="M80.4,13.2v12.7c-2.7,0-5.3-0.8-7.5-2.4L80.4,13.2z"/>
<path class="st5" d="M80.4,13.2l7.5,10.3c-2.1,1.6-4.8,2.5-7.5,2.4V13.2z"/>
<path class="st6" d="M80.4,13.2l12.1,3.9c-0.8,2.6-2.4,4.8-4.6,6.4L80.4,13.2z"/>
<path class="st7" d="M80.4,13.2l12.1-3.9c0.9,2.5,0.9,5.3,0,7.9L80.4,13.2z"/>
<path class="st8" d="M80.4,13.2l7.5-10.3c2.2,1.6,3.8,3.8,4.6,6.4L80.4,13.2z"/>
<path class="st9" d="M80.4,13.2V0.5c2.7,0,5.3,0.8,7.5,2.4L80.4,13.2z"/>
<path d="M80.4,0.5c2.5,0,4.9,0.7,7,2.1C89.5,4,91.1,6,92,8.3c1,2.3,1.2,4.8,0.7,7.3c-0.5,2.4-1.7,4.7-3.5,6.5c-1.8,1.8-4,3-6.5,3.5
	c-2.4,0.5-5,0.2-7.3-0.7c-2.3-1-4.3-2.6-5.7-4.6c-1.4-2.1-2.1-4.5-2.1-7c0-3.3,1.3-6.6,3.7-8.9C73.8,1.9,77,0.5,80.4,0.5z M80.4,0
	c-2.6,0-5.1,0.8-7.3,2.2c-2.2,1.4-3.8,3.5-4.8,5.9c-1,2.4-1.3,5-0.7,7.6c0.5,2.6,1.8,4.9,3.6,6.7c1.8,1.8,4.2,3.1,6.7,3.6
	c2.6,0.5,5.2,0.2,7.6-0.7c2.4-1,4.5-2.7,5.9-4.8s2.2-4.7,2.2-7.3c0-3.5-1.4-6.8-3.9-9.3C87.2,1.4,83.9,0,80.4,0"/>
<path d="M80.7,26h-0.6v29.8h0.6V26z"/>
<path d="M80.7,26h-0.6v29.8l0.6,0V26z"/>
<path d="M90.6,53.5c-0.6,0.4-2.7,2-4.5,3.5c-0.3-0.1-0.5-0.2-0.8-0.4c1.7-1.7,3.7-3.8,4.5-4.5c1-0.9,1.6-1.3,2.3-1.3
	c0.7,0,1.2,0.5,1.7,1.2c0,0,0.2,0.3,0.6,0.8c-0.4,0.2-0.8,0.5-1.3,0.7c-0.1-0.2-0.3-0.3-0.5-0.4C92.6,53,92.4,53,92.1,53
	C91.6,53,91.1,53.2,90.6,53.5"/>
<path d="M99.8,52.3c0.2,0.2,0.4,0.5,0.5,0.7l-1.2,0.5c-0.2-0.2-0.3-0.4-0.5-0.6L99.8,52.3z"/>
<path d="M95.7,54.3c0.1,0.2,0.3,0.3,0.4,0.5l-1.3,0.5c-0.1-0.1-0.3-0.3-0.4-0.4L95.7,54.3"/>
<path d="M102.3,55.6c2.6,3.5,4.9,6.5,4.9,6.5h-0.9c0,0-2.4-2.9-5.1-6.1L102.3,55.6z"/>
<path d="M97.8,57c2,2.5,4,5.1,4,5.1h-0.8c0,0-2.3-2.5-4.3-4.8C97,57.2,97.4,57.1,97.8,57z"/>
<path d="M92.7,46.6c0.7,0,1,0.3,1.5,0.8c0.1,0.1,1.4,1.7,3.2,3.8c0.4-0.2,0.8-0.5,1.2-0.7c-2.2-2.9-4-5.2-4.1-5.5
	c-0.5-0.6-1-1.1-1.8-1.1c-1,0-1.5,0.5-2.2,1.3c-1,1.4-4.4,7.6-6.2,10.9c0.2,0.1,0.4,0.1,0.7,0.2c2-2.9,5.2-7.8,6.3-9
	C91.7,46.9,92.1,46.6,92.7,46.6"/>
<path d="M68.6,53c-0.2,0-0.4,0.1-0.6,0.2c-0.2,0.1-0.4,0.3-0.5,0.4c-0.4-0.3-0.8-0.5-1.3-0.7c0.4-0.5,0.6-0.8,0.6-0.8
	c0.6-0.7,1.1-1.2,1.8-1.2c0.7,0,1.3,0.4,2.3,1.3c0.8,0.7,2.8,2.8,4.5,4.5c-0.3,0.1-0.6,0.2-0.8,0.4c-1.8-1.5-3.8-3.1-4.5-3.5
	C69.7,53.1,69.2,53,68.6,53"/>
<path d="M62.1,52.9c-0.2,0.2-0.3,0.4-0.5,0.6L60.4,53c0.2-0.2,0.3-0.5,0.5-0.7L62.1,52.9z"/>
<path d="M66.3,54.9c-0.1,0.1-0.2,0.3-0.4,0.4l-1.3-0.5c0.1-0.2,0.2-0.3,0.4-0.5C65.5,54.5,65.9,54.7,66.3,54.9"/>
<path d="M59.5,55.9l-5.1,6.1h-0.9c0,0,2.3-3,4.9-6.5L59.5,55.9z"/>
<path d="M64.1,57.3l-4.3,4.8H59c0,0,2-2.6,4-5.1C63.4,57.1,63.7,57.2,64.1,57.3"/>
<path d="M69.6,47.5c1.1,1.1,4.3,6,6.3,9c0.2-0.1,0.5-0.2,0.7-0.2c-1.8-3.4-5.2-9.5-6.2-10.9c-0.6-0.9-1.2-1.3-2.2-1.3
	c-0.8,0-1.3,0.4-1.8,1.1c-0.2,0.2-1.9,2.6-4.1,5.5l1.2,0.7c1.7-2.1,3-3.7,3.1-3.8c0.5-0.5,0.8-0.8,1.5-0.8
	C68.6,46.6,69.1,47,69.6,47.5"/>
<path d="M80.4,56.4c2.5,0,5,0.8,7.2,2.2V60c-2.1,1.4-4.6,2.2-7.2,2.2c-2.5,0-5-0.8-7.2-2.2v-1.5C75.3,57.2,77.8,56.4,80.4,56.4z"/>
<path d="M107.4,47.8c-0.2-0.3-0.5-0.6-0.9-0.7c-0.3-0.2-0.7-0.3-1.1-0.3c-0.6,0-1.2,0.2-1.7,0.5c-1.7,1-11.3,6.8-16.9,10.1
	c0.3,0.2,0.6,0.4,1,0.6c5.6-2.6,14.3-6.7,16.2-7.6c0.6-0.3,1.2-0.5,1.8-0.5c1,0,1.6,0.6,2.3,1.2c2,1.9,11.3,11,11.3,11h1.1
	C120.5,62.1,109.6,50.2,107.4,47.8z"/>
<path d="M104,52.6c-0.6,0.1-1.2,0.2-1.7,0.5c-1.6,0.7-8.8,3.5-14.1,5.6v1.1c5.7-1.7,13.8-4.2,14.3-4.3c0.5-0.2,1-0.3,1.5-0.3
	c0.3,0,0.7,0.1,1,0.2s0.6,0.3,0.9,0.6c1.1,1,5.2,4.9,6.5,6.1h1c0,0-6.1-6.8-7.8-8.7c-0.2-0.2-0.4-0.4-0.7-0.6
	C104.7,52.6,104.4,52.5,104,52.6"/>
<path d="M40.2,62.1h1.1c0,0,9.2-9.1,11.3-11c0.7-0.6,1.3-1.2,2.3-1.2c0.6,0,1.3,0.2,1.8,0.5c1.9,0.9,10.7,5,16.3,7.6
	c0.3-0.2,0.6-0.4,1-0.6c-5.6-3.3-15.2-9.1-16.9-10.1c-0.5-0.3-1.1-0.5-1.7-0.5c-0.4,0-0.8,0.1-1.1,0.3c-0.3,0.2-0.6,0.4-0.9,0.7
	C51.1,50.2,40.2,62.1,40.2,62.1"/>
<path d="M55.1,53.4c-1.7,1.9-7.8,8.7-7.8,8.7h1c1.3-1.2,5.4-5.1,6.5-6.1c0.2-0.2,0.5-0.4,0.9-0.6c0.3-0.1,0.7-0.2,1-0.2
	c0.5,0,1,0.1,1.5,0.3c0.5,0.1,8.6,2.6,14.3,4.3v-1.1l-14-5.7c-0.5-0.3-1.2-0.5-1.8-0.5c-0.3,0-0.6,0.1-0.9,0.2
	C55.5,52.9,55.3,53.1,55.1,53.4"/>
<path d="M19.5,10.9c-0.3-0.7-1-1.1-2-1.1c-1,0-1.6,0.4-1.6,1c0,0.7,0.8,0.8,2.3,1.2c0.8,0.1,1.6,0.4,2.3,0.8
	c0.3,0.2,0.5,0.4,0.6,0.6c0.1,0.3,0.2,0.6,0.2,0.9c0,1.3-1.4,2.2-3.7,2.2c-1.9,0-3.3-0.8-3.8-2.2l1.6-0.2c0.3,0.9,1.2,1.4,2.4,1.4
	c1,0,1.8-0.5,1.8-1c0-0.8-0.7-0.9-2.2-1.2c-0.9-0.2-1.7-0.3-2.5-0.9c-0.2-0.1-0.4-0.3-0.5-0.5c-0.1-0.2-0.2-0.5-0.2-0.7
	c0-1.3,1.3-2.2,3.4-2.2c1.7,0,2.9,0.7,3.4,1.9L19.5,10.9z"/>
<path d="M30.3,8.9v1.1h-4.6v2h3.7v1h-3.7v2.3h4.7v1.1h-6.3V8.9H30.3z"/>
<path d="M34.6,8.9v6.3h4v1.1H33V8.9H34.6z"/>
<path d="M47,8.9v1.1h-4.6v2h3.7v1h-3.7v2.3h4.7v1.1h-6.3V8.9H47z"/>
<path d="M55.1,11.5c0-0.5-0.3-0.9-0.6-1.2c-0.4-0.3-0.8-0.5-1.3-0.4c-1.3,0-2.2,1-2.2,2.8s0.8,2.8,2.2,2.8c1,0,1.7-0.6,2-1.6
	l1.5,0.2c-0.4,1.6-1.7,2.5-3.5,2.5c-2.4,0-3.9-1.5-3.9-3.8s1.6-3.8,3.9-3.8c1.9,0,3.2,0.9,3.5,2.6L55.1,11.5z"/>
<path d="M64.6,8.9v1.1h-2.4v6.3h-1.7V9.9h-2.3V8.9H64.6z"/>
<path d="M101.8,10.9c-0.3-0.7-1-1.1-2-1.1c-1,0-1.6,0.4-1.6,1c0,0.7,0.8,0.8,2.3,1.2c0.8,0.1,1.6,0.4,2.3,0.8
	c0.3,0.2,0.5,0.4,0.6,0.6c0.1,0.3,0.2,0.6,0.2,0.9c0,1.3-1.4,2.2-3.7,2.2c-1.9,0-3.3-0.8-3.8-2.2l1.6-0.2c0.3,0.9,1.2,1.4,2.4,1.4
	c1,0,1.8-0.5,1.8-1c0-0.8-0.7-0.9-2.2-1.2c-0.9-0.2-1.7-0.3-2.5-0.9c-0.2-0.1-0.4-0.3-0.5-0.5c-0.1-0.2-0.2-0.5-0.2-0.7
	c0-1.3,1.3-2.2,3.4-2.2c1.7,0,2.9,0.7,3.4,1.9L101.8,10.9z"/>
<path d="M112.5,8.9v1.1h-4.6v2h3.7v1h-3.7v2.3h4.7v1.1h-6.3V8.9H112.5z"/>
<path d="M120.6,11.5c0-0.5-0.3-0.9-0.6-1.2c-0.4-0.3-0.8-0.5-1.3-0.4c-1.3,0-2.2,1-2.2,2.8s0.8,2.8,2.2,2.8c1,0,1.7-0.6,2-1.6
	l1.5,0.2c-0.4,1.6-1.7,2.5-3.5,2.5c-2.4,0-3.9-1.5-3.9-3.8s1.6-3.8,3.9-3.8c1.9,0,3.2,0.9,3.5,2.6L120.6,11.5z"/>
<path d="M130.2,8.9v1.1h-2.4v6.3h-1.7V9.9h-2.3V8.9H130.2z"/>
<path d="M139.9,12.6c0,2.4-1.6,3.8-4,3.8s-4-1.5-4-3.8c0-2.4,1.6-3.8,4-3.8S139.9,10.2,139.9,12.6z M133.7,12.6
	c0,1.8,0.8,2.8,2.2,2.8s2.2-1,2.2-2.8c0-1.8-0.8-2.8-2.2-2.8S133.7,10.8,133.7,12.6z"/>
<path d="M146.2,8.9c2.3,0,3.4,0.7,3.4,2.1c0,0.9-0.6,1.6-1.7,1.9l1.8,3.3h-1.7l-1.7-3.1h-2.1v3.1h-1.7V8.9H146.2z M144.3,12.2h1.8
	c1.3,0,1.9-0.4,1.9-1.1s-0.6-1.1-1.9-1.1h-1.8L144.3,12.2z"/>
<path d="M13.3,29.4c0,1.8,1.9,2.5,5.3,3.2c1.7,0.3,5.2,1,6.8,1.3c3.7,0.7,14.3,2.3,14.3,10.3c0,7.1-6.5,11.4-20.4,11.4
	C4.4,55.6,0,49.5,0,44.3v-0.4h12.8v0.4c0,1.6,1.4,4.1,8,4.1c5.1,0,6.3-1.5,6.3-3c0-1.3-1.2-2.6-5.5-3.4L11.6,40
	C4.5,38.7,0,35.6,0,30.1c0-5.7,6.6-10.3,19.4-10.3c18.1,0,19.7,7.8,19.7,10.4v0.6H26.3v-0.5c0-1.1-1.9-3.4-7.3-3.4
	C15.7,26.9,13.3,27.7,13.3,29.4z"/>
<path d="M124,19.9h25.2c10.9,0,14.6,5.9,14.6,11.4c0,8-6.5,10.2-8,10.6l8.7,13.9h-14.2l-7.4-13.1h-6.1v13.1H124V19.9z M136.9,34.6
	h9.7c3.1,0,4.4-1.4,4.4-3.3c0-1.8-1.3-3.3-4.4-3.3h-9.7V34.6z"/>
<path d="M169.4,41.7c0,1,1,1.4,2.8,1.7c0.9,0.2,2.7,0.5,3.5,0.7c1.9,0.4,7.4,1.2,7.4,5.5c0,3.8-3.3,6.1-10.5,6.1
	c-7.7,0-9.9-3.3-9.9-6.1v-0.2h6.6v0.2c0,0.9,0.7,2.2,4.1,2.2c2.7,0,3.3-0.8,3.3-1.6c0-0.7-0.6-1.4-2.8-1.8l-5.1-1
	c-3.7-0.7-6-2.4-6-5.3c0-3,3.4-5.6,10-5.6c9.4,0,10.2,4.2,10.2,5.6v0.3h-6.6v-0.3c0-0.6-1-1.8-3.7-1.8
	C170.6,40.4,169.4,40.8,169.4,41.7"/>
<path d="M97.1,47.4l1.5,2l3.7-2.2c-0.8,0.1-1.6,0.1-2.4,0.1L97.1,47.4z"/>
<path d="M92.7,47.4c-0.2,0-0.5,0.2-1,0.7c-0.3,0.4-1.1,1.4-2.9,3.9l0.5-0.5c1.1-1,1.8-1.5,2.8-1.5s1.8,0.7,2.4,1.5l0.2,0.2l1.4-0.8
	c-2-2.4-2.5-3-2.5-3.1C93.1,47.5,93,47.4,92.7,47.4"/>
<path d="M92.5,43.2c1.1,0,1.7,0.6,2.3,1.2V28.2h5.1c6.4,0,11,2.8,11,9.6c0,4.1-1.7,6.8-4.6,8.3c0.6,0.2,1.2,0.6,1.6,1.1l5.9,6.4
	c6.2-2.8,9.7-8.4,9.7-15.8c0-10.4-7-17.9-20.4-17.9H92.6c-1,1.9-2.5,3.5-4.3,4.8c-1.8,1.2-3.8,2-6,2.3v28.8h1.2
	c1-1.8,5-9.3,6.2-10.9C90.3,44,91.1,43.2,92.5,43.2"/>
<path d="M107.7,51.6c-0.7-0.6-1.1-1-1.7-1c-0.5,0-1,0.2-1.5,0.5c-0.6,0.3-1.8,0.8-3.4,1.6l0,0l0.9-0.4l0.3-0.1
	c0.5-0.3,1.1-0.4,1.7-0.4c0.4,0,0.8,0.1,1.2,0.3c0.4,0.2,0.7,0.4,1,0.8c0.5,0.5,1.3,1.4,2.2,2.5c0.8-0.2,1.7-0.3,2.4-0.6
	C109.5,53.4,108.3,52.2,107.7,51.6L107.7,51.6z"/>
<path d="M53,46.9v-3.9h11c10.7,0,14.7-4.7,14.7-11.6c0-1.5-0.2-3.1-0.7-4.5c-2-0.4-3.9-1.1-5.6-2.3c-1.7-1.2-3.1-2.7-4.1-4.5
	c-1.4-0.2-2.8-0.3-4.3-0.3H40.2v35.9h4.7c3.1-3.4,6.7-7.3,7.8-8.5C52.8,47.2,52.9,47.1,53,46.9L53,46.9z M53,27.9h7.9
	c3.1,0,4.9,1.1,4.9,3.5c0,2.3-1.8,3.5-4.9,3.5H53V27.9z"/>
<path d="M53,51.7c-0.8,0.7-2.4,2.3-4.2,4.1h3l1.1-1.3V51.7z"/>
<path class="st10" d="M170.1,27.7c0-0.5,0.2-1,0.4-1.5c0.3-0.4,0.7-0.8,1.2-1c0.5-0.2,1-0.3,1.5-0.2c0.5,0.1,1,0.4,1.4,0.7
	c0.4,0.4,0.6,0.8,0.7,1.4c0.1,0.5,0.1,1-0.2,1.5c-0.2,0.5-0.5,0.9-1,1.2c-0.4,0.3-0.9,0.4-1.5,0.4c-0.3,0-0.7-0.1-1-0.2
	c-0.3-0.1-0.6-0.3-0.9-0.6c-0.2-0.2-0.4-0.5-0.6-0.9C170.2,28.4,170.1,28,170.1,27.7z M174.8,27.7c0-0.4-0.1-0.8-0.3-1.1
	c-0.2-0.3-0.5-0.6-0.9-0.7c-0.4-0.2-0.8-0.2-1.2-0.1c-0.4,0.1-0.8,0.3-1,0.6c-0.3,0.3-0.5,0.6-0.6,1c-0.1,0.4,0,0.8,0.1,1.2
	c0.2,0.4,0.4,0.7,0.8,0.9c0.3,0.2,0.7,0.3,1.1,0.3c0.5,0,1.1-0.2,1.4-0.6C174.6,28.7,174.8,28.2,174.8,27.7z M174.1,29.1h-0.7
	l-0.6-1.2h-0.5v1.2h-0.6v-2.8h1.4c0.7,0,1.1,0.1,1.1,0.9c0,0.5-0.3,0.7-0.8,0.8L174.1,29.1z M173.1,27.5c0.3,0,0.5-0.1,0.5-0.4
	c0-0.4-0.4-0.3-0.6-0.3h-0.7v0.8H173.1z"/>
</svg>
